<svg id="visual" viewBox="0 0 960 540" width="960" height="540" xmlns="http://www.w3.org/2000/svg" xmlns:xlink="http://www.w3.org/1999/xlink" version="1.1"><rect x="0" y="0" width="960" height="540" fill="#fff"></rect><defs><linearGradient id="grad1_0" x1="43.8%" y1="100%" x2="100%" y2="0%"><stop offset="14.444444444444446%" stop-color="#ffffff" stop-opacity="1"></stop><stop offset="85.55555555555554%" stop-color="#ffffff" stop-opacity="1"></stop></linearGradient></defs><defs><linearGradient id="grad2_0" x1="0%" y1="100%" x2="56.3%" y2="0%"><stop offset="14.444444444444446%" stop-color="#ffffff" stop-opacity="1"></stop><stop offset="85.55555555555554%" stop-color="#ffffff" stop-opacity="1"></stop></linearGradient></defs><g transform="translate(960, 540)"><path d="M-324 0C-296.4 -32 -268.7 -64.1 -257.8 -106.8C-246.8 -149.5 -252.5 -202.8 -229.1 -229.1C-205.7 -255.4 -153.2 -254.8 -110.2 -266.1C-67.2 -277.4 -33.6 -300.7 0 -324L0 0Z" fill="#E1F2FE"></path></g><g transform="translate(0, 0)"><path d="M324 0C324.3 47.3 324.6 94.6 299.3 124C274 153.4 223.1 165 190.9 190.9C158.8 216.9 145.4 257.2 116.7 281.8C88 306.4 44 315.2 0 324L0 0Z" fill="#E1F2FE"></path></g></svg>